<svg id="Layer_1" data-name="Layer 1" xmlns="http://www.w3.org/2000/svg" viewBox="0 0 28.35 28.35"><defs><style>.cls-1{fill:#fff;}.cls-2{fill:#3d5b9a;}</style></defs><title>facebook-f-icon-white</title><path id="Blue" class="cls-1" d="M26.78,28.35a1.56,1.56,0,0,0,1.56-1.56V1.56A1.56,1.56,0,0,0,26.78,0H1.56A1.56,1.56,0,0,0,0,1.56V26.78a1.56,1.56,0,0,0,1.56,1.56H26.78Z" transform="translate(0)"/><path id="f" class="cls-2" d="M19.56,28.35v-11h3.68l0.55-4.28H19.56V10.36c0-1.24.34-2.08,2.12-2.08h2.27V4.45a30.28,30.28,0,0,0-3.3-.17c-3.27,0-5.5,2-5.5,5.65v3.15H11.45v4.28h3.69v11h4.42Z" transform="translate(0)"/></svg>