<svg id="Layer_1" data-name="Layer 1" xmlns="http://www.w3.org/2000/svg" viewBox="0 0 28.35 28.35"><defs><style>.cls-1{fill:#557ebf;}.cls-2{fill:#36a852;}.cls-3{fill:#f9bc15;}.cls-4{fill:#ea4535;}.cls-5{fill:none;}</style></defs><title>google-g-icon</title><g id="Google-Button"><g id="btn_google_light_normal" data-name="btn google light normal"><g id="logo_googleg_48dp" data-name="logo googleg 48dp"><path id="Shape" class="cls-1" d="M27.78,14.5a16.29,16.29,0,0,0-.26-2.9H14.17v5.48H21.8A6.52,6.52,0,0,1,19,21.36v3.56h4.58A13.82,13.82,0,0,0,27.78,14.5h0Z"/><path id="Shape-2" data-name="Shape" class="cls-2" d="M14.17,28.35a13.53,13.53,0,0,0,9.38-3.43L19,21.36A8.55,8.55,0,0,1,6.24,16.87H1.51v3.67a14.17,14.17,0,0,0,12.67,7.81h0Z"/><path id="Shape-3" data-name="Shape" class="cls-3" d="M6.24,16.87a8.38,8.38,0,0,1,0-5.39V7.81H1.51a14.19,14.19,0,0,0,0,12.73l4.74-3.67h0Z"/><path id="Shape-4" data-name="Shape" class="cls-4" d="M14.17,5.64a7.66,7.66,0,0,1,5.42,2.12l4.07-4.07A13.62,13.62,0,0,0,14.17,0,14.17,14.17,0,0,0,1.51,7.81l4.74,3.67a8.45,8.45,0,0,1,7.93-5.84h0Z"/><path id="Shape-5" data-name="Shape" class="cls-5" d="M0,0H28.35V28.35H0V0Z"/></g></g></g></svg>