<?xml version="1.0" encoding="utf-8"?>
<!-- Generator: Adobe Illustrator 19.2.1, SVG Export Plug-In . SVG Version: 6.00 Build 0)  -->
<svg version="1.1" id="Layer_1" xmlns="http://www.w3.org/2000/svg" xmlns:xlink="http://www.w3.org/1999/xlink" x="0px" y="0px"
	 viewBox="0 0 400 400" style="enable-background:new 0 0 400 400;" xml:space="preserve">
<style type="text/css">
	.st0{fill:#FFFFFF;}
</style>
<g id="Logo__x2014__FIXED">
	<g>
		<path class="st0" d="M125.9,362.2c150.6,0,232.9-124.9,232.9-232.9c0-3.5,0-7-0.2-10.5c16-11.5,29.9-26,40.9-42.5
			c-14.7,6.5-30.5,10.9-47.1,12.9c16.9-10.1,29.9-26.2,36.1-45.3c-15.8,9.4-33.4,16.1-52.1,19.8c-15-16-36.2-25.9-59.7-25.9
			c-45.2,0-81.9,36.7-81.9,81.9c0,6.4,0.8,12.6,2.1,18.7c-68-3.4-128.4-36.1-168.8-85.6c-7,12.1-11,26.2-11,41.2
			c0,28.4,14.5,53.5,36.4,68.2c-13.4-0.5-26-4.2-37-10.2c0,0.3,0,0.6,0,1.1c0,39.6,28.3,72.8,65.6,80.3c-6.9,1.9-14.1,2.9-21.6,2.9
			c-5.3,0-10.4-0.5-15.3-1.4c10.4,32.6,40.7,56.2,76.5,56.8c-28.1,22-63.4,35.1-101.7,35.1c-6.5,0-13.1-0.3-19.5-1.1
			C36.6,348.6,79.7,362.2,125.9,362.2"/>
	</g>
</g>
</svg>
